# xmcd
#
# Track frame offsets: 
#        150
#        9686
#        22655
#        32901
#        45571
#        63683
#        76854
#        94253
#        106932
#        119387
#
# Disc length: 1714 seconds
#
# Revision: 0
# Processed by: cddbd v1.5.2PL0 Copyright (c) Steve Scherf et al.
# Submitted via: ExactAudioCopy v0.99pb1
#
DISCID=7506b00a
DTITLE=Erika Stolt - Sweet Talking Devil
DYEAR=2006
DGENRE=Country
TTITLE0=Bitch Is Back
TTITLE1=Writings On The Wall
TTITLE2=Come Rain Come Shine
TTITLE3=Shape Up
TTITLE4=It's Over
TTITLE5=Gambler
TTITLE6=Sweet Talking Devil
TTITLE7=Weekend Blues
TTITLE8=Lie To You
TTITLE9=Better Movin'
EXTD=
EXTT0=
EXTT1=
EXTT2=
EXTT3=
EXTT4=
EXTT5=
EXTT6=
EXTT7=
EXTT8=
EXTT9=
PLAYORDER=
